<?xml version="1.0" standalone="no" ?>
<svg
  xmlns:xlink="http://www.w3.org/1999/xlink"
  id="wave"
  style="transform:rotate(0deg); transition: 0.3s"
  viewBox="0 0 1440 490"
  version="1.1"
  xmlns="http://www.w3.org/2000/svg"
><defs><linearGradient id="sw-gradient-0" x1="0" x2="0" y1="1" y2="0"><stop
        stop-color="rgba(13,110,251, 1)"
        offset="0%"
      /><stop
        stop-color="rgba(50,173,255, 1)"
        offset="100%"
      /></linearGradient></defs><path
    style="transform:translate(0, 0px); opacity:1"
    fill="url(#sw-gradient-0)"
    d="M0,441L60,416.5C120,392,240,343,360,269.5C480,196,600,98,720,89.8C840,82,960,163,1080,212.3C1200,261,1320,278,1440,302.2C1560,327,1680,359,1800,351.2C1920,343,2040,294,2160,277.7C2280,261,2400,278,2520,253.2C2640,229,2760,163,2880,138.8C3000,114,3120,131,3240,155.2C3360,180,3480,212,3600,196C3720,180,3840,114,3960,89.8C4080,65,4200,82,4320,122.5C4440,163,4560,229,4680,236.8C4800,245,4920,196,5040,171.5C5160,147,5280,147,5400,122.5C5520,98,5640,49,5760,24.5C5880,0,6000,0,6120,8.2C6240,16,6360,33,6480,73.5C6600,114,6720,180,6840,228.7C6960,278,7080,310,7200,269.5C7320,229,7440,114,7560,122.5C7680,131,7800,261,7920,302.2C8040,343,8160,294,8280,236.8C8400,180,8520,114,8580,81.7L8640,49L8640,490L8580,490C8520,490,8400,490,8280,490C8160,490,8040,490,7920,490C7800,490,7680,490,7560,490C7440,490,7320,490,7200,490C7080,490,6960,490,6840,490C6720,490,6600,490,6480,490C6360,490,6240,490,6120,490C6000,490,5880,490,5760,490C5640,490,5520,490,5400,490C5280,490,5160,490,5040,490C4920,490,4800,490,4680,490C4560,490,4440,490,4320,490C4200,490,4080,490,3960,490C3840,490,3720,490,3600,490C3480,490,3360,490,3240,490C3120,490,3000,490,2880,490C2760,490,2640,490,2520,490C2400,490,2280,490,2160,490C2040,490,1920,490,1800,490C1680,490,1560,490,1440,490C1320,490,1200,490,1080,490C960,490,840,490,720,490C600,490,480,490,360,490C240,490,120,490,60,490L0,490Z"
  >
  <animate
      attributeName="d"
      dur="40000ms"
      repeatCount="indefinite"
      values="M0,441L60,416.5C120,392,240,343,360,269.5C480,196,600,98,720,89.8C840,82,960,163,1080,212.3C1200,261,1320,278,1440,302.2C1560,327,1680,359,1800,351.2C1920,343,2040,294,2160,277.7C2280,261,2400,278,2520,253.2C2640,229,2760,163,2880,138.8C3000,114,3120,131,3240,155.2C3360,180,3480,212,3600,196C3720,180,3840,114,3960,89.8C4080,65,4200,82,4320,122.5C4440,163,4560,229,4680,236.8C4800,245,4920,196,5040,171.5C5160,147,5280,147,5400,122.5C5520,98,5640,49,5760,24.5C5880,0,6000,0,6120,8.2C6240,16,6360,33,6480,73.5C6600,114,6720,180,6840,228.7C6960,278,7080,310,7200,269.5C7320,229,7440,114,7560,122.5C7680,131,7800,261,7920,302.2C8040,343,8160,294,8280,236.8C8400,180,8520,114,8580,81.7L8640,49L8640,490L8580,490C8520,490,8400,490,8280,490C8160,490,8040,490,7920,490C7800,490,7680,490,7560,490C7440,490,7320,490,7200,490C7080,490,6960,490,6840,490C6720,490,6600,490,6480,490C6360,490,6240,490,6120,490C6000,490,5880,490,5760,490C5640,490,5520,490,5400,490C5280,490,5160,490,5040,490C4920,490,4800,490,4680,490C4560,490,4440,490,4320,490C4200,490,4080,490,3960,490C3840,490,3720,490,3600,490C3480,490,3360,490,3240,490C3120,490,3000,490,2880,490C2760,490,2640,490,2520,490C2400,490,2280,490,2160,490C2040,490,1920,490,1800,490C1680,490,1560,490,1440,490C1320,490,1200,490,1080,490C960,490,840,490,720,490C600,490,480,490,360,490C240,490,120,490,60,490L0,490Z;
    M0,245L60,269.5C120,294,240,343,360,351.2C480,359,600,327,720,277.7C840,229,960,163,1080,163.3C1200,163,1320,229,1440,220.5C1560,212,1680,131,1800,106.2C1920,82,2040,114,2160,171.5C2280,229,2400,310,2520,285.8C2640,261,2760,131,2880,138.8C3000,147,3120,294,3240,367.5C3360,441,3480,441,3600,441C3720,441,3840,441,3960,424.7C4080,408,4200,376,4320,375.7C4440,376,4560,408,4680,416.5C4800,425,4920,408,5040,351.2C5160,294,5280,196,5400,196C5520,196,5640,294,5760,326.7C5880,359,6000,327,6120,334.8C6240,343,6360,392,6480,400.2C6600,408,6720,376,6840,343C6960,310,7080,278,7200,261.3C7320,245,7440,245,7560,277.7C7680,310,7800,376,7920,408.3C8040,441,8160,441,8280,367.5C8400,294,8520,147,8580,73.5L8640,0L8640,490L8580,490C8520,490,8400,490,8280,490C8160,490,8040,490,7920,490C7800,490,7680,490,7560,490C7440,490,7320,490,7200,490C7080,490,6960,490,6840,490C6720,490,6600,490,6480,490C6360,490,6240,490,6120,490C6000,490,5880,490,5760,490C5640,490,5520,490,5400,490C5280,490,5160,490,5040,490C4920,490,4800,490,4680,490C4560,490,4440,490,4320,490C4200,490,4080,490,3960,490C3840,490,3720,490,3600,490C3480,490,3360,490,3240,490C3120,490,3000,490,2880,490C2760,490,2640,490,2520,490C2400,490,2280,490,2160,490C2040,490,1920,490,1800,490C1680,490,1560,490,1440,490C1320,490,1200,490,1080,490C960,490,840,490,720,490C600,490,480,490,360,490C240,490,120,490,60,490L0,490Z;
    M0,196L60,212.3C120,229,240,261,360,228.7C480,196,600,98,720,89.8C840,82,960,163,1080,236.8C1200,310,1320,376,1440,375.7C1560,376,1680,310,1800,236.8C1920,163,2040,82,2160,57.2C2280,33,2400,65,2520,98C2640,131,2760,163,2880,163.3C3000,163,3120,131,3240,98C3360,65,3480,33,3600,40.8C3720,49,3840,98,3960,122.5C4080,147,4200,147,4320,196C4440,245,4560,343,4680,367.5C4800,392,4920,343,5040,302.2C5160,261,5280,229,5400,245C5520,261,5640,327,5760,334.8C5880,343,6000,294,6120,236.8C6240,180,6360,114,6480,122.5C6600,131,6720,212,6840,253.2C6960,294,7080,294,7200,285.8C7320,278,7440,261,7560,228.7C7680,196,7800,147,7920,114.3C8040,82,8160,65,8280,65.3C8400,65,8520,82,8580,89.8L8640,98L8640,490L8580,490C8520,490,8400,490,8280,490C8160,490,8040,490,7920,490C7800,490,7680,490,7560,490C7440,490,7320,490,7200,490C7080,490,6960,490,6840,490C6720,490,6600,490,6480,490C6360,490,6240,490,6120,490C6000,490,5880,490,5760,490C5640,490,5520,490,5400,490C5280,490,5160,490,5040,490C4920,490,4800,490,4680,490C4560,490,4440,490,4320,490C4200,490,4080,490,3960,490C3840,490,3720,490,3600,490C3480,490,3360,490,3240,490C3120,490,3000,490,2880,490C2760,490,2640,490,2520,490C2400,490,2280,490,2160,490C2040,490,1920,490,1800,490C1680,490,1560,490,1440,490C1320,490,1200,490,1080,490C960,490,840,490,720,490C600,490,480,490,360,490C240,490,120,490,60,490L0,490Z;
    M0,245L60,212.3C120,180,240,114,360,98C480,82,600,114,720,171.5C840,229,960,310,1080,326.7C1200,343,1320,294,1440,285.8C1560,278,1680,310,1800,269.5C1920,229,2040,114,2160,81.7C2280,49,2400,98,2520,106.2C2640,114,2760,82,2880,98C3000,114,3120,180,3240,204.2C3360,229,3480,212,3600,179.7C3720,147,3840,98,3960,81.7C4080,65,4200,82,4320,98C4440,114,4560,131,4680,130.7C4800,131,4920,114,5040,147C5160,180,5280,261,5400,253.2C5520,245,5640,147,5760,130.7C5880,114,6000,180,6120,245C6240,310,6360,376,6480,351.2C6600,327,6720,212,6840,196C6960,180,7080,261,7200,310.3C7320,359,7440,376,7560,351.2C7680,327,7800,261,7920,253.2C8040,245,8160,294,8280,318.5C8400,343,8520,343,8580,343L8640,343L8640,490L8580,490C8520,490,8400,490,8280,490C8160,490,8040,490,7920,490C7800,490,7680,490,7560,490C7440,490,7320,490,7200,490C7080,490,6960,490,6840,490C6720,490,6600,490,6480,490C6360,490,6240,490,6120,490C6000,490,5880,490,5760,490C5640,490,5520,490,5400,490C5280,490,5160,490,5040,490C4920,490,4800,490,4680,490C4560,490,4440,490,4320,490C4200,490,4080,490,3960,490C3840,490,3720,490,3600,490C3480,490,3360,490,3240,490C3120,490,3000,490,2880,490C2760,490,2640,490,2520,490C2400,490,2280,490,2160,490C2040,490,1920,490,1800,490C1680,490,1560,490,1440,490C1320,490,1200,490,1080,490C960,490,840,490,720,490C600,490,480,490,360,490C240,490,120,490,60,490L0,490Z;
  M0,441L60,416.5C120,392,240,343,360,269.5C480,196,600,98,720,89.8C840,82,960,163,1080,212.3C1200,261,1320,278,1440,302.2C1560,327,1680,359,1800,351.2C1920,343,2040,294,2160,277.7C2280,261,2400,278,2520,253.2C2640,229,2760,163,2880,138.8C3000,114,3120,131,3240,155.2C3360,180,3480,212,3600,196C3720,180,3840,114,3960,89.8C4080,65,4200,82,4320,122.5C4440,163,4560,229,4680,236.8C4800,245,4920,196,5040,171.5C5160,147,5280,147,5400,122.5C5520,98,5640,49,5760,24.5C5880,0,6000,0,6120,8.2C6240,16,6360,33,6480,73.5C6600,114,6720,180,6840,228.7C6960,278,7080,310,7200,269.5C7320,229,7440,114,7560,122.5C7680,131,7800,261,7920,302.2C8040,343,8160,294,8280,236.8C8400,180,8520,114,8580,81.7L8640,49L8640,490L8580,490C8520,490,8400,490,8280,490C8160,490,8040,490,7920,490C7800,490,7680,490,7560,490C7440,490,7320,490,7200,490C7080,490,6960,490,6840,490C6720,490,6600,490,6480,490C6360,490,6240,490,6120,490C6000,490,5880,490,5760,490C5640,490,5520,490,5400,490C5280,490,5160,490,5040,490C4920,490,4800,490,4680,490C4560,490,4440,490,4320,490C4200,490,4080,490,3960,490C3840,490,3720,490,3600,490C3480,490,3360,490,3240,490C3120,490,3000,490,2880,490C2760,490,2640,490,2520,490C2400,490,2280,490,2160,490C2040,490,1920,490,1800,490C1680,490,1560,490,1440,490C1320,490,1200,490,1080,490C960,490,840,490,720,490C600,490,480,490,360,490C240,490,120,490,60,490L0,490Z;"
    /></path>
  <defs><linearGradient id="sw-gradient-1" x1="0" x2="0" y1="1" y2="0"><stop
        stop-color="rgba(13,110,251, 1)"
        offset="0%"
      /><stop
        stop-color="rgba(50,173,255, 1)"
        offset="100%"
      /></linearGradient></defs><path
    style="transform:translate(0, 50px); opacity:0.9"
    fill="url(#sw-gradient-1)"
    d="M0,98L60,130.7C120,163,240,229,360,245C480,261,600,229,720,187.8C840,147,960,98,1080,89.8C1200,82,1320,114,1440,147C1560,180,1680,212,1800,261.3C1920,310,2040,376,2160,400.2C2280,425,2400,408,2520,334.8C2640,261,2760,131,2880,138.8C3000,147,3120,294,3240,351.2C3360,408,3480,376,3600,334.8C3720,294,3840,245,3960,220.5C4080,196,4200,196,4320,228.7C4440,261,4560,327,4680,310.3C4800,294,4920,196,5040,187.8C5160,180,5280,261,5400,294C5520,327,5640,310,5760,302.2C5880,294,6000,294,6120,245C6240,196,6360,98,6480,65.3C6600,33,6720,65,6840,89.8C6960,114,7080,131,7200,130.7C7320,131,7440,114,7560,138.8C7680,163,7800,229,7920,236.8C8040,245,8160,196,8280,171.5C8400,147,8520,147,8580,147L8640,147L8640,490L8580,490C8520,490,8400,490,8280,490C8160,490,8040,490,7920,490C7800,490,7680,490,7560,490C7440,490,7320,490,7200,490C7080,490,6960,490,6840,490C6720,490,6600,490,6480,490C6360,490,6240,490,6120,490C6000,490,5880,490,5760,490C5640,490,5520,490,5400,490C5280,490,5160,490,5040,490C4920,490,4800,490,4680,490C4560,490,4440,490,4320,490C4200,490,4080,490,3960,490C3840,490,3720,490,3600,490C3480,490,3360,490,3240,490C3120,490,3000,490,2880,490C2760,490,2640,490,2520,490C2400,490,2280,490,2160,490C2040,490,1920,490,1800,490C1680,490,1560,490,1440,490C1320,490,1200,490,1080,490C960,490,840,490,720,490C600,490,480,490,360,490C240,490,120,490,60,490L0,490Z"
  >
  <animate
      attributeName="d"
      dur="40000ms"
      repeatCount="indefinite"
      values="M0,98L60,130.7C120,163,240,229,360,245C480,261,600,229,720,187.8C840,147,960,98,1080,89.8C1200,82,1320,114,1440,147C1560,180,1680,212,1800,261.3C1920,310,2040,376,2160,400.2C2280,425,2400,408,2520,334.8C2640,261,2760,131,2880,138.8C3000,147,3120,294,3240,351.2C3360,408,3480,376,3600,334.8C3720,294,3840,245,3960,220.5C4080,196,4200,196,4320,228.7C4440,261,4560,327,4680,310.3C4800,294,4920,196,5040,187.8C5160,180,5280,261,5400,294C5520,327,5640,310,5760,302.2C5880,294,6000,294,6120,245C6240,196,6360,98,6480,65.3C6600,33,6720,65,6840,89.8C6960,114,7080,131,7200,130.7C7320,131,7440,114,7560,138.8C7680,163,7800,229,7920,236.8C8040,245,8160,196,8280,171.5C8400,147,8520,147,8580,147L8640,147L8640,490L8580,490C8520,490,8400,490,8280,490C8160,490,8040,490,7920,490C7800,490,7680,490,7560,490C7440,490,7320,490,7200,490C7080,490,6960,490,6840,490C6720,490,6600,490,6480,490C6360,490,6240,490,6120,490C6000,490,5880,490,5760,490C5640,490,5520,490,5400,490C5280,490,5160,490,5040,490C4920,490,4800,490,4680,490C4560,490,4440,490,4320,490C4200,490,4080,490,3960,490C3840,490,3720,490,3600,490C3480,490,3360,490,3240,490C3120,490,3000,490,2880,490C2760,490,2640,490,2520,490C2400,490,2280,490,2160,490C2040,490,1920,490,1800,490C1680,490,1560,490,1440,490C1320,490,1200,490,1080,490C960,490,840,490,720,490C600,490,480,490,360,490C240,490,120,490,60,490L0,490Z;
      M0,343L60,302.2C120,261,240,180,360,163.3C480,147,600,196,720,228.7C840,261,960,278,1080,294C1200,310,1320,327,1440,326.7C1560,327,1680,310,1800,277.7C1920,245,2040,196,2160,147C2280,98,2400,49,2520,49C2640,49,2760,98,2880,114.3C3000,131,3120,114,3240,114.3C3360,114,3480,131,3600,187.8C3720,245,3840,343,3960,375.7C4080,408,4200,376,4320,343C4440,310,4560,278,4680,236.8C4800,196,4920,147,5040,138.8C5160,131,5280,163,5400,179.7C5520,196,5640,196,5760,179.7C5880,163,6000,131,6120,106.2C6240,82,6360,65,6480,98C6600,131,6720,212,6840,261.3C6960,310,7080,327,7200,285.8C7320,245,7440,147,7560,106.2C7680,65,7800,82,7920,89.8C8040,98,8160,98,8280,130.7C8400,163,8520,229,8580,261.3L8640,294L8640,490L8580,490C8520,490,8400,490,8280,490C8160,490,8040,490,7920,490C7800,490,7680,490,7560,490C7440,490,7320,490,7200,490C7080,490,6960,490,6840,490C6720,490,6600,490,6480,490C6360,490,6240,490,6120,490C6000,490,5880,490,5760,490C5640,490,5520,490,5400,490C5280,490,5160,490,5040,490C4920,490,4800,490,4680,490C4560,490,4440,490,4320,490C4200,490,4080,490,3960,490C3840,490,3720,490,3600,490C3480,490,3360,490,3240,490C3120,490,3000,490,2880,490C2760,490,2640,490,2520,490C2400,490,2280,490,2160,490C2040,490,1920,490,1800,490C1680,490,1560,490,1440,490C1320,490,1200,490,1080,490C960,490,840,490,720,490C600,490,480,490,360,490C240,490,120,490,60,490L0,490Z;
      M0,196L60,212.3C120,229,240,261,360,285.8C480,310,600,327,720,294C840,261,960,180,1080,187.8C1200,196,1320,294,1440,318.5C1560,343,1680,294,1800,236.8C1920,180,2040,114,2160,130.7C2280,147,2400,245,2520,294C2640,343,2760,343,2880,310.3C3000,278,3120,212,3240,163.3C3360,114,3480,82,3600,57.2C3720,33,3840,16,3960,49C4080,82,4200,163,4320,204.2C4440,245,4560,245,4680,204.2C4800,163,4920,82,5040,73.5C5160,65,5280,131,5400,171.5C5520,212,5640,229,5760,269.5C5880,310,6000,376,6120,351.2C6240,327,6360,212,6480,212.3C6600,212,6720,327,6840,351.2C6960,376,7080,310,7200,285.8C7320,261,7440,278,7560,236.8C7680,196,7800,98,7920,98C8040,98,8160,196,8280,236.8C8400,278,8520,261,8580,253.2L8640,245L8640,490L8580,490C8520,490,8400,490,8280,490C8160,490,8040,490,7920,490C7800,490,7680,490,7560,490C7440,490,7320,490,7200,490C7080,490,6960,490,6840,490C6720,490,6600,490,6480,490C6360,490,6240,490,6120,490C6000,490,5880,490,5760,490C5640,490,5520,490,5400,490C5280,490,5160,490,5040,490C4920,490,4800,490,4680,490C4560,490,4440,490,4320,490C4200,490,4080,490,3960,490C3840,490,3720,490,3600,490C3480,490,3360,490,3240,490C3120,490,3000,490,2880,490C2760,490,2640,490,2520,490C2400,490,2280,490,2160,490C2040,490,1920,490,1800,490C1680,490,1560,490,1440,490C1320,490,1200,490,1080,490C960,490,840,490,720,490C600,490,480,490,360,490C240,490,120,490,60,490L0,490Z;
      M0,98L60,81.7C120,65,240,33,360,89.8C480,147,600,294,720,334.8C840,376,960,310,1080,310.3C1200,310,1320,376,1440,351.2C1560,327,1680,212,1800,147C1920,82,2040,65,2160,98C2280,131,2400,212,2520,204.2C2640,196,2760,98,2880,57.2C3000,16,3120,33,3240,73.5C3360,114,3480,180,3600,212.3C3720,245,3840,245,3960,220.5C4080,196,4200,147,4320,171.5C4440,196,4560,294,4680,351.2C4800,408,4920,425,5040,408.3C5160,392,5280,343,5400,310.3C5520,278,5640,261,5760,277.7C5880,294,6000,343,6120,367.5C6240,392,6360,392,6480,375.7C6600,359,6720,327,6840,302.2C6960,278,7080,261,7200,285.8C7320,310,7440,376,7560,383.8C7680,392,7800,343,7920,277.7C8040,212,8160,131,8280,114.3C8400,98,8520,147,8580,171.5L8640,196L8640,490L8580,490C8520,490,8400,490,8280,490C8160,490,8040,490,7920,490C7800,490,7680,490,7560,490C7440,490,7320,490,7200,490C7080,490,6960,490,6840,490C6720,490,6600,490,6480,490C6360,490,6240,490,6120,490C6000,490,5880,490,5760,490C5640,490,5520,490,5400,490C5280,490,5160,490,5040,490C4920,490,4800,490,4680,490C4560,490,4440,490,4320,490C4200,490,4080,490,3960,490C3840,490,3720,490,3600,490C3480,490,3360,490,3240,490C3120,490,3000,490,2880,490C2760,490,2640,490,2520,490C2400,490,2280,490,2160,490C2040,490,1920,490,1800,490C1680,490,1560,490,1440,490C1320,490,1200,490,1080,490C960,490,840,490,720,490C600,490,480,490,360,490C240,490,120,490,60,490L0,490Z;
  M0,98L60,130.7C120,163,240,229,360,245C480,261,600,229,720,187.8C840,147,960,98,1080,89.8C1200,82,1320,114,1440,147C1560,180,1680,212,1800,261.3C1920,310,2040,376,2160,400.2C2280,425,2400,408,2520,334.8C2640,261,2760,131,2880,138.8C3000,147,3120,294,3240,351.2C3360,408,3480,376,3600,334.8C3720,294,3840,245,3960,220.5C4080,196,4200,196,4320,228.7C4440,261,4560,327,4680,310.3C4800,294,4920,196,5040,187.8C5160,180,5280,261,5400,294C5520,327,5640,310,5760,302.2C5880,294,6000,294,6120,245C6240,196,6360,98,6480,65.3C6600,33,6720,65,6840,89.8C6960,114,7080,131,7200,130.7C7320,131,7440,114,7560,138.8C7680,163,7800,229,7920,236.8C8040,245,8160,196,8280,171.5C8400,147,8520,147,8580,147L8640,147L8640,490L8580,490C8520,490,8400,490,8280,490C8160,490,8040,490,7920,490C7800,490,7680,490,7560,490C7440,490,7320,490,7200,490C7080,490,6960,490,6840,490C6720,490,6600,490,6480,490C6360,490,6240,490,6120,490C6000,490,5880,490,5760,490C5640,490,5520,490,5400,490C5280,490,5160,490,5040,490C4920,490,4800,490,4680,490C4560,490,4440,490,4320,490C4200,490,4080,490,3960,490C3840,490,3720,490,3600,490C3480,490,3360,490,3240,490C3120,490,3000,490,2880,490C2760,490,2640,490,2520,490C2400,490,2280,490,2160,490C2040,490,1920,490,1800,490C1680,490,1560,490,1440,490C1320,490,1200,490,1080,490C960,490,840,490,720,490C600,490,480,490,360,490C240,490,120,490,60,490L0,490Z;"
    /></path>
  <defs><linearGradient id="sw-gradient-2" x1="0" x2="0" y1="1" y2="0"><stop
        stop-color="rgba(13,110,251, 1)"
        offset="0%"
      /><stop
        stop-color="rgba(50,173,255, 1)"
        offset="100%"
      /></linearGradient>

    </defs><path
    style="transform:translate(0, 100px); opacity:0.8"
    fill="url(#sw-gradient-2)"
    d="M0,343L60,294C120,245,240,147,360,163.3C480,180,600,310,720,343C840,376,960,310,1080,261.3C1200,212,1320,180,1440,155.2C1560,131,1680,114,1800,114.3C1920,114,2040,131,2160,122.5C2280,114,2400,82,2520,57.2C2640,33,2760,16,2880,32.7C3000,49,3120,98,3240,114.3C3360,131,3480,114,3600,114.3C3720,114,3840,131,3960,130.7C4080,131,4200,114,4320,147C4440,180,4560,261,4680,277.7C4800,294,4920,245,5040,253.2C5160,261,5280,327,5400,310.3C5520,294,5640,196,5760,179.7C5880,163,6000,229,6120,277.7C6240,327,6360,359,6480,318.5C6600,278,6720,163,6840,147C6960,131,7080,212,7200,269.5C7320,327,7440,359,7560,375.7C7680,392,7800,392,7920,334.8C8040,278,8160,163,8280,98C8400,33,8520,16,8580,8.2L8640,0L8640,490L8580,490C8520,490,8400,490,8280,490C8160,490,8040,490,7920,490C7800,490,7680,490,7560,490C7440,490,7320,490,7200,490C7080,490,6960,490,6840,490C6720,490,6600,490,6480,490C6360,490,6240,490,6120,490C6000,490,5880,490,5760,490C5640,490,5520,490,5400,490C5280,490,5160,490,5040,490C4920,490,4800,490,4680,490C4560,490,4440,490,4320,490C4200,490,4080,490,3960,490C3840,490,3720,490,3600,490C3480,490,3360,490,3240,490C3120,490,3000,490,2880,490C2760,490,2640,490,2520,490C2400,490,2280,490,2160,490C2040,490,1920,490,1800,490C1680,490,1560,490,1440,490C1320,490,1200,490,1080,490C960,490,840,490,720,490C600,490,480,490,360,490C240,490,120,490,60,490L0,490Z"
  >
  <animate
      attributeName="d"
      dur="40000ms"
      repeatCount="indefinite"
      values="M0,343L60,294C120,245,240,147,360,163.3C480,180,600,310,720,343C840,376,960,310,1080,261.3C1200,212,1320,180,1440,155.2C1560,131,1680,114,1800,114.3C1920,114,2040,131,2160,122.5C2280,114,2400,82,2520,57.2C2640,33,2760,16,2880,32.7C3000,49,3120,98,3240,114.3C3360,131,3480,114,3600,114.3C3720,114,3840,131,3960,130.7C4080,131,4200,114,4320,147C4440,180,4560,261,4680,277.7C4800,294,4920,245,5040,253.2C5160,261,5280,327,5400,310.3C5520,294,5640,196,5760,179.7C5880,163,6000,229,6120,277.7C6240,327,6360,359,6480,318.5C6600,278,6720,163,6840,147C6960,131,7080,212,7200,269.5C7320,327,7440,359,7560,375.7C7680,392,7800,392,7920,334.8C8040,278,8160,163,8280,98C8400,33,8520,16,8580,8.2L8640,0L8640,490L8580,490C8520,490,8400,490,8280,490C8160,490,8040,490,7920,490C7800,490,7680,490,7560,490C7440,490,7320,490,7200,490C7080,490,6960,490,6840,490C6720,490,6600,490,6480,490C6360,490,6240,490,6120,490C6000,490,5880,490,5760,490C5640,490,5520,490,5400,490C5280,490,5160,490,5040,490C4920,490,4800,490,4680,490C4560,490,4440,490,4320,490C4200,490,4080,490,3960,490C3840,490,3720,490,3600,490C3480,490,3360,490,3240,490C3120,490,3000,490,2880,490C2760,490,2640,490,2520,490C2400,490,2280,490,2160,490C2040,490,1920,490,1800,490C1680,490,1560,490,1440,490C1320,490,1200,490,1080,490C960,490,840,490,720,490C600,490,480,490,360,490C240,490,120,490,60,490L0,490Z;
      M0,98L60,81.7C120,65,240,33,360,49C480,65,600,131,720,155.2C840,180,960,163,1080,171.5C1200,180,1320,212,1440,212.3C1560,212,1680,180,1800,204.2C1920,229,2040,310,2160,334.8C2280,359,2400,327,2520,326.7C2640,327,2760,359,2880,351.2C3000,343,3120,294,3240,228.7C3360,163,3480,82,3600,89.8C3720,98,3840,196,3960,236.8C4080,278,4200,261,4320,236.8C4440,212,4560,180,4680,179.7C4800,180,4920,212,5040,245C5160,278,5280,310,5400,310.3C5520,310,5640,278,5760,245C5880,212,6000,180,6120,196C6240,212,6360,278,6480,261.3C6600,245,6720,147,6840,138.8C6960,131,7080,212,7200,236.8C7320,261,7440,229,7560,187.8C7680,147,7800,98,7920,106.2C8040,114,8160,180,8280,212.3C8400,245,8520,245,8580,245L8640,245L8640,490L8580,490C8520,490,8400,490,8280,490C8160,490,8040,490,7920,490C7800,490,7680,490,7560,490C7440,490,7320,490,7200,490C7080,490,6960,490,6840,490C6720,490,6600,490,6480,490C6360,490,6240,490,6120,490C6000,490,5880,490,5760,490C5640,490,5520,490,5400,490C5280,490,5160,490,5040,490C4920,490,4800,490,4680,490C4560,490,4440,490,4320,490C4200,490,4080,490,3960,490C3840,490,3720,490,3600,490C3480,490,3360,490,3240,490C3120,490,3000,490,2880,490C2760,490,2640,490,2520,490C2400,490,2280,490,2160,490C2040,490,1920,490,1800,490C1680,490,1560,490,1440,490C1320,490,1200,490,1080,490C960,490,840,490,720,490C600,490,480,490,360,490C240,490,120,490,60,490L0,490Z;
      M0,441L60,392C120,343,240,245,360,187.8C480,131,600,114,720,130.7C840,147,960,196,1080,236.8C1200,278,1320,310,1440,285.8C1560,261,1680,180,1800,196C1920,212,2040,327,2160,318.5C2280,310,2400,180,2520,179.7C2640,180,2760,310,2880,318.5C3000,327,3120,212,3240,179.7C3360,147,3480,196,3600,212.3C3720,229,3840,212,3960,220.5C4080,229,4200,261,4320,269.5C4440,278,4560,261,4680,261.3C4800,261,4920,278,5040,277.7C5160,278,5280,261,5400,236.8C5520,212,5640,180,5760,187.8C5880,196,6000,245,6120,228.7C6240,212,6360,131,6480,106.2C6600,82,6720,114,6840,114.3C6960,114,7080,82,7200,114.3C7320,147,7440,245,7560,269.5C7680,294,7800,245,7920,236.8C8040,229,8160,261,8280,236.8C8400,212,8520,131,8580,89.8L8640,49L8640,490L8580,490C8520,490,8400,490,8280,490C8160,490,8040,490,7920,490C7800,490,7680,490,7560,490C7440,490,7320,490,7200,490C7080,490,6960,490,6840,490C6720,490,6600,490,6480,490C6360,490,6240,490,6120,490C6000,490,5880,490,5760,490C5640,490,5520,490,5400,490C5280,490,5160,490,5040,490C4920,490,4800,490,4680,490C4560,490,4440,490,4320,490C4200,490,4080,490,3960,490C3840,490,3720,490,3600,490C3480,490,3360,490,3240,490C3120,490,3000,490,2880,490C2760,490,2640,490,2520,490C2400,490,2280,490,2160,490C2040,490,1920,490,1800,490C1680,490,1560,490,1440,490C1320,490,1200,490,1080,490C960,490,840,490,720,490C600,490,480,490,360,490C240,490,120,490,60,490L0,490Z;
      M0,98L60,114.3C120,131,240,163,360,196C480,229,600,261,720,294C840,327,960,359,1080,334.8C1200,310,1320,229,1440,236.8C1560,245,1680,343,1800,351.2C1920,359,2040,278,2160,277.7C2280,278,2400,359,2520,334.8C2640,310,2760,180,2880,106.2C3000,33,3120,16,3240,32.7C3360,49,3480,98,3600,114.3C3720,131,3840,114,3960,89.8C4080,65,4200,33,4320,24.5C4440,16,4560,33,4680,98C4800,163,4920,278,5040,334.8C5160,392,5280,392,5400,367.5C5520,343,5640,294,5760,261.3C5880,229,6000,212,6120,228.7C6240,245,6360,294,6480,310.3C6600,327,6720,310,6840,310.3C6960,310,7080,327,7200,318.5C7320,310,7440,278,7560,261.3C7680,245,7800,245,7920,277.7C8040,310,8160,376,8280,359.3C8400,343,8520,245,8580,196L8640,147L8640,490L8580,490C8520,490,8400,490,8280,490C8160,490,8040,490,7920,490C7800,490,7680,490,7560,490C7440,490,7320,490,7200,490C7080,490,6960,490,6840,490C6720,490,6600,490,6480,490C6360,490,6240,490,6120,490C6000,490,5880,490,5760,490C5640,490,5520,490,5400,490C5280,490,5160,490,5040,490C4920,490,4800,490,4680,490C4560,490,4440,490,4320,490C4200,490,4080,490,3960,490C3840,490,3720,490,3600,490C3480,490,3360,490,3240,490C3120,490,3000,490,2880,490C2760,490,2640,490,2520,490C2400,490,2280,490,2160,490C2040,490,1920,490,1800,490C1680,490,1560,490,1440,490C1320,490,1200,490,1080,490C960,490,840,490,720,490C600,490,480,490,360,490C240,490,120,490,60,490L0,490Z;
M0,343L60,294C120,245,240,147,360,163.3C480,180,600,310,720,343C840,376,960,310,1080,261.3C1200,212,1320,180,1440,155.2C1560,131,1680,114,1800,114.3C1920,114,2040,131,2160,122.5C2280,114,2400,82,2520,57.2C2640,33,2760,16,2880,32.7C3000,49,3120,98,3240,114.3C3360,131,3480,114,3600,114.3C3720,114,3840,131,3960,130.7C4080,131,4200,114,4320,147C4440,180,4560,261,4680,277.7C4800,294,4920,245,5040,253.2C5160,261,5280,327,5400,310.3C5520,294,5640,196,5760,179.7C5880,163,6000,229,6120,277.7C6240,327,6360,359,6480,318.5C6600,278,6720,163,6840,147C6960,131,7080,212,7200,269.5C7320,327,7440,359,7560,375.7C7680,392,7800,392,7920,334.8C8040,278,8160,163,8280,98C8400,33,8520,16,8580,8.2L8640,0L8640,490L8580,490C8520,490,8400,490,8280,490C8160,490,8040,490,7920,490C7800,490,7680,490,7560,490C7440,490,7320,490,7200,490C7080,490,6960,490,6840,490C6720,490,6600,490,6480,490C6360,490,6240,490,6120,490C6000,490,5880,490,5760,490C5640,490,5520,490,5400,490C5280,490,5160,490,5040,490C4920,490,4800,490,4680,490C4560,490,4440,490,4320,490C4200,490,4080,490,3960,490C3840,490,3720,490,3600,490C3480,490,3360,490,3240,490C3120,490,3000,490,2880,490C2760,490,2640,490,2520,490C2400,490,2280,490,2160,490C2040,490,1920,490,1800,490C1680,490,1560,490,1440,490C1320,490,1200,490,1080,490C960,490,840,490,720,490C600,490,480,490,360,490C240,490,120,490,60,490L0,490Z;"
    /></path>
  
  <defs><linearGradient id="sw-gradient-3" x1="0" x2="0" y1="1" y2="0"><stop
        stop-color="rgba(13,110,251, 1)"
        offset="0%"
      /><stop
        stop-color="rgba(50,173,255, 1)"
        offset="100%"
      /></linearGradient>
    </defs><path
    style="transform:translate(0, 150px); opacity:0.7"
    fill="url(#sw-gradient-3)"
    d="M0,294L60,253.2C120,212,240,131,360,89.8C480,49,600,49,720,49C840,49,960,49,1080,114.3C1200,180,1320,310,1440,326.7C1560,343,1680,245,1800,212.3C1920,180,2040,212,2160,253.2C2280,294,2400,343,2520,375.7C2640,408,2760,425,2880,408.3C3000,392,3120,343,3240,326.7C3360,310,3480,327,3600,294C3720,261,3840,180,3960,122.5C4080,65,4200,33,4320,65.3C4440,98,4560,196,4680,261.3C4800,327,4920,359,5040,310.3C5160,261,5280,131,5400,130.7C5520,131,5640,261,5760,269.5C5880,278,6000,163,6120,155.2C6240,147,6360,245,6480,277.7C6600,310,6720,278,6840,261.3C6960,245,7080,245,7200,277.7C7320,310,7440,376,7560,351.2C7680,327,7800,212,7920,163.3C8040,114,8160,131,8280,147C8400,163,8520,180,8580,187.8L8640,196L8640,490L8580,490C8520,490,8400,490,8280,490C8160,490,8040,490,7920,490C7800,490,7680,490,7560,490C7440,490,7320,490,7200,490C7080,490,6960,490,6840,490C6720,490,6600,490,6480,490C6360,490,6240,490,6120,490C6000,490,5880,490,5760,490C5640,490,5520,490,5400,490C5280,490,5160,490,5040,490C4920,490,4800,490,4680,490C4560,490,4440,490,4320,490C4200,490,4080,490,3960,490C3840,490,3720,490,3600,490C3480,490,3360,490,3240,490C3120,490,3000,490,2880,490C2760,490,2640,490,2520,490C2400,490,2280,490,2160,490C2040,490,1920,490,1800,490C1680,490,1560,490,1440,490C1320,490,1200,490,1080,490C960,490,840,490,720,490C600,490,480,490,360,490C240,490,120,490,60,490L0,490Z"
  >
  <animate
      attributeName="d"
      dur="40000ms"
      repeatCount="indefinite"
      values="M0,294L60,253.2C120,212,240,131,360,89.8C480,49,600,49,720,49C840,49,960,49,1080,114.3C1200,180,1320,310,1440,326.7C1560,343,1680,245,1800,212.3C1920,180,2040,212,2160,253.2C2280,294,2400,343,2520,375.7C2640,408,2760,425,2880,408.3C3000,392,3120,343,3240,326.7C3360,310,3480,327,3600,294C3720,261,3840,180,3960,122.5C4080,65,4200,33,4320,65.3C4440,98,4560,196,4680,261.3C4800,327,4920,359,5040,310.3C5160,261,5280,131,5400,130.7C5520,131,5640,261,5760,269.5C5880,278,6000,163,6120,155.2C6240,147,6360,245,6480,277.7C6600,310,6720,278,6840,261.3C6960,245,7080,245,7200,277.7C7320,310,7440,376,7560,351.2C7680,327,7800,212,7920,163.3C8040,114,8160,131,8280,147C8400,163,8520,180,8580,187.8L8640,196L8640,490L8580,490C8520,490,8400,490,8280,490C8160,490,8040,490,7920,490C7800,490,7680,490,7560,490C7440,490,7320,490,7200,490C7080,490,6960,490,6840,490C6720,490,6600,490,6480,490C6360,490,6240,490,6120,490C6000,490,5880,490,5760,490C5640,490,5520,490,5400,490C5280,490,5160,490,5040,490C4920,490,4800,490,4680,490C4560,490,4440,490,4320,490C4200,490,4080,490,3960,490C3840,490,3720,490,3600,490C3480,490,3360,490,3240,490C3120,490,3000,490,2880,490C2760,490,2640,490,2520,490C2400,490,2280,490,2160,490C2040,490,1920,490,1800,490C1680,490,1560,490,1440,490C1320,490,1200,490,1080,490C960,490,840,490,720,490C600,490,480,490,360,490C240,490,120,490,60,490L0,490Z;
      M0,196L60,204.2C120,212,240,229,360,212.3C480,196,600,147,720,147C840,147,960,196,1080,187.8C1200,180,1320,114,1440,147C1560,180,1680,310,1800,359.3C1920,408,2040,376,2160,367.5C2280,359,2400,376,2520,318.5C2640,261,2760,131,2880,130.7C3000,131,3120,261,3240,294C3360,327,3480,261,3600,212.3C3720,163,3840,131,3960,138.8C4080,147,4200,196,4320,253.2C4440,310,4560,376,4680,375.7C4800,376,4920,310,5040,245C5160,180,5280,114,5400,130.7C5520,147,5640,245,5760,302.2C5880,359,6000,376,6120,318.5C6240,261,6360,131,6480,106.2C6600,82,6720,163,6840,196C6960,229,7080,212,7200,228.7C7320,245,7440,294,7560,269.5C7680,245,7800,147,7920,147C8040,147,8160,245,8280,269.5C8400,294,8520,245,8580,220.5L8640,196L8640,490L8580,490C8520,490,8400,490,8280,490C8160,490,8040,490,7920,490C7800,490,7680,490,7560,490C7440,490,7320,490,7200,490C7080,490,6960,490,6840,490C6720,490,6600,490,6480,490C6360,490,6240,490,6120,490C6000,490,5880,490,5760,490C5640,490,5520,490,5400,490C5280,490,5160,490,5040,490C4920,490,4800,490,4680,490C4560,490,4440,490,4320,490C4200,490,4080,490,3960,490C3840,490,3720,490,3600,490C3480,490,3360,490,3240,490C3120,490,3000,490,2880,490C2760,490,2640,490,2520,490C2400,490,2280,490,2160,490C2040,490,1920,490,1800,490C1680,490,1560,490,1440,490C1320,490,1200,490,1080,490C960,490,840,490,720,490C600,490,480,490,360,490C240,490,120,490,60,490L0,490Z;
      M0,245L60,236.8C120,229,240,212,360,228.7C480,245,600,294,720,326.7C840,359,960,376,1080,383.8C1200,392,1320,392,1440,326.7C1560,261,1680,131,1800,138.8C1920,147,2040,294,2160,318.5C2280,343,2400,245,2520,236.8C2640,229,2760,310,2880,334.8C3000,359,3120,327,3240,334.8C3360,343,3480,392,3600,343C3720,294,3840,147,3960,89.8C4080,33,4200,65,4320,81.7C4440,98,4560,98,4680,130.7C4800,163,4920,229,5040,245C5160,261,5280,229,5400,253.2C5520,278,5640,359,5760,351.2C5880,343,6000,245,6120,245C6240,245,6360,343,6480,367.5C6600,392,6720,343,6840,318.5C6960,294,7080,294,7200,302.2C7320,310,7440,327,7560,294C7680,261,7800,180,7920,130.7C8040,82,8160,65,8280,98C8400,131,8520,212,8580,253.2L8640,294L8640,490L8580,490C8520,490,8400,490,8280,490C8160,490,8040,490,7920,490C7800,490,7680,490,7560,490C7440,490,7320,490,7200,490C7080,490,6960,490,6840,490C6720,490,6600,490,6480,490C6360,490,6240,490,6120,490C6000,490,5880,490,5760,490C5640,490,5520,490,5400,490C5280,490,5160,490,5040,490C4920,490,4800,490,4680,490C4560,490,4440,490,4320,490C4200,490,4080,490,3960,490C3840,490,3720,490,3600,490C3480,490,3360,490,3240,490C3120,490,3000,490,2880,490C2760,490,2640,490,2520,490C2400,490,2280,490,2160,490C2040,490,1920,490,1800,490C1680,490,1560,490,1440,490C1320,490,1200,490,1080,490C960,490,840,490,720,490C600,490,480,490,360,490C240,490,120,490,60,490L0,490Z;
      M0,392L60,326.7C120,261,240,131,360,89.8C480,49,600,98,720,106.2C840,114,960,82,1080,73.5C1200,65,1320,82,1440,81.7C1560,82,1680,65,1800,57.2C1920,49,2040,49,2160,106.2C2280,163,2400,278,2520,343C2640,408,2760,425,2880,424.7C3000,425,3120,408,3240,351.2C3360,294,3480,196,3600,155.2C3720,114,3840,131,3960,163.3C4080,196,4200,245,4320,277.7C4440,310,4560,327,4680,277.7C4800,229,4920,114,5040,122.5C5160,131,5280,261,5400,277.7C5520,294,5640,196,5760,196C5880,196,6000,294,6120,351.2C6240,408,6360,425,6480,408.3C6600,392,6720,343,6840,285.8C6960,229,7080,163,7200,171.5C7320,180,7440,261,7560,269.5C7680,278,7800,212,7920,212.3C8040,212,8160,278,8280,310.3C8400,343,8520,343,8580,343L8640,343L8640,490L8580,490C8520,490,8400,490,8280,490C8160,490,8040,490,7920,490C7800,490,7680,490,7560,490C7440,490,7320,490,7200,490C7080,490,6960,490,6840,490C6720,490,6600,490,6480,490C6360,490,6240,490,6120,490C6000,490,5880,490,5760,490C5640,490,5520,490,5400,490C5280,490,5160,490,5040,490C4920,490,4800,490,4680,490C4560,490,4440,490,4320,490C4200,490,4080,490,3960,490C3840,490,3720,490,3600,490C3480,490,3360,490,3240,490C3120,490,3000,490,2880,490C2760,490,2640,490,2520,490C2400,490,2280,490,2160,490C2040,490,1920,490,1800,490C1680,490,1560,490,1440,490C1320,490,1200,490,1080,490C960,490,840,490,720,490C600,490,480,490,360,490C240,490,120,490,60,490L0,490Z;
  M0,294L60,253.2C120,212,240,131,360,89.8C480,49,600,49,720,49C840,49,960,49,1080,114.3C1200,180,1320,310,1440,326.7C1560,343,1680,245,1800,212.3C1920,180,2040,212,2160,253.2C2280,294,2400,343,2520,375.7C2640,408,2760,425,2880,408.3C3000,392,3120,343,3240,326.7C3360,310,3480,327,3600,294C3720,261,3840,180,3960,122.5C4080,65,4200,33,4320,65.3C4440,98,4560,196,4680,261.3C4800,327,4920,359,5040,310.3C5160,261,5280,131,5400,130.7C5520,131,5640,261,5760,269.5C5880,278,6000,163,6120,155.2C6240,147,6360,245,6480,277.7C6600,310,6720,278,6840,261.3C6960,245,7080,245,7200,277.7C7320,310,7440,376,7560,351.2C7680,327,7800,212,7920,163.3C8040,114,8160,131,8280,147C8400,163,8520,180,8580,187.8L8640,196L8640,490L8580,490C8520,490,8400,490,8280,490C8160,490,8040,490,7920,490C7800,490,7680,490,7560,490C7440,490,7320,490,7200,490C7080,490,6960,490,6840,490C6720,490,6600,490,6480,490C6360,490,6240,490,6120,490C6000,490,5880,490,5760,490C5640,490,5520,490,5400,490C5280,490,5160,490,5040,490C4920,490,4800,490,4680,490C4560,490,4440,490,4320,490C4200,490,4080,490,3960,490C3840,490,3720,490,3600,490C3480,490,3360,490,3240,490C3120,490,3000,490,2880,490C2760,490,2640,490,2520,490C2400,490,2280,490,2160,490C2040,490,1920,490,1800,490C1680,490,1560,490,1440,490C1320,490,1200,490,1080,490C960,490,840,490,720,490C600,490,480,490,360,490C240,490,120,490,60,490L0,490Z;"
    /></path>
</svg>