<svg id="Calque_1" data-name="Calque 1" xmlns="http://www.w3.org/2000/svg" xmlns:xlink="http://www.w3.org/1999/xlink" viewBox="0 0 774.14 184.24"><defs><style>.cls-1{fill:none;}.cls-2{fill:#004b75;}.cls-3{fill:#0092c6;}.cls-4{clip-path:url(#clip-path);}.cls-5{fill:#009fe3;}</style><clipPath id="clip-path" transform="translate(-32.41 -119.05)"><rect class="cls-1" width="841.89" height="425.2"/></clipPath></defs><title>logo aymax avec slogan pour fond blanc</title><path class="cls-2" d="M67.4,227.6H43.32L32.41,249.24H56.66Zm59.33-50.1L97.51,119.05,54.06,206H78.47l19-38.24,17.12,34.1Z" transform="translate(-32.41 -119.05)"/><path class="cls-2" d="M741.45,201.72l37.1,47.52h27.5l-50.77-65.09Zm64.6-82.66h-27.5l-37.1,47.51,13.83,17.58ZM676.68,249.24h27.83l36.94-47.52-13.67-17.57Zm27.83-130.18H676.68l51.1,65.09,13.67-17.58Z" transform="translate(-32.41 -119.05)"/><path class="cls-3" d="M198.19,227.59H174.11l10.74,21.65H209.1ZM124.81,206h0L144,167.71l19,38.24h24.4L144,119.06,78.92,249.24H103l11.07-21.81Z" transform="translate(-32.41 -119.05)"/><g class="cls-4"><path class="cls-2" d="M802.74,294.77h2.45l1.36-16.27v-1.28h-5.2v1.28Zm-1.21,8.09h4.87v-5h-4.87Zm-36.28,0h4.54V281.4h8.13v-4.18h-20.8v4.18h8.13Zm-22.08,0h4.46V277.22h-4.46Zm-38.23,0h4.55V292.64l10.18-15.42H714.5l-7.25,11.36-7.18-11.36h-5.31l10.18,15.53Zm-38.41,0h11.84a15.13,15.13,0,0,0,3.88-.46,9,9,0,0,0,3-1.34,6.12,6.12,0,0,0,1.92-2.19,6.58,6.58,0,0,0,.67-3v-.08a6.73,6.73,0,0,0-.36-2.3,5.14,5.14,0,0,0-1-1.72,6.74,6.74,0,0,0-1.6-1.27,13.48,13.48,0,0,0-2.06-.93,10.81,10.81,0,0,0,1.36-.88,5.74,5.74,0,0,0,1.17-1.19,6,6,0,0,0,.79-1.58,6.18,6.18,0,0,0,.31-2.07v-.07a5.81,5.81,0,0,0-1.71-4.25q-2.28-2.26-6.7-2.27H666.53ZM671,288v-6.82h6.46a5.52,5.52,0,0,1,3.34.86,2.83,2.83,0,0,1,1.15,2.4v.08a2.92,2.92,0,0,1-1.31,2.62,6.34,6.34,0,0,1-3.5.86Zm0,10.84v-7h7.12a7,7,0,0,1,4,.89,2.93,2.93,0,0,1,1.29,2.55v.07a3,3,0,0,1-1.31,2.64,6.5,6.5,0,0,1-3.62.88Zm-52.39,4h9.56a14.88,14.88,0,0,0,5.51-1,13.26,13.26,0,0,0,4.32-2.71,11.9,11.9,0,0,0,2.8-4.07,12.81,12.81,0,0,0,1-5V290a12.73,12.73,0,0,0-1-5,12,12,0,0,0-2.8-4.05,13.22,13.22,0,0,0-4.32-2.69,15.29,15.29,0,0,0-5.51-1H618.6Zm4.47-4.07v-17.5h5a9.77,9.77,0,0,1,3.66.66,7.91,7.91,0,0,1,4.6,4.6A9.33,9.33,0,0,1,637,290v.07a9.24,9.24,0,0,1-.64,3.48,8.28,8.28,0,0,1-1.79,2.76,8.08,8.08,0,0,1-2.81,1.8,10,10,0,0,1-3.66.64Zm-33.44,4.07h19.15v-4.07H594.1V292H607v-4.07H594.1v-6.59h14.5v-4.07h-19Zm-30.91,0h4.46v-8.94h5.66l6.32,8.94h5.31l-6.92-9.71a9.41,9.41,0,0,0,2.47-1,7.29,7.29,0,0,0,1.92-1.65,7.4,7.4,0,0,0,1.27-2.23,8.42,8.42,0,0,0,.46-2.84v-.07a8.44,8.44,0,0,0-.55-3.08,7.27,7.27,0,0,0-1.58-2.45,8.57,8.57,0,0,0-3.11-1.89,12.58,12.58,0,0,0-4.29-.68H558.72Zm4.46-12.93v-8.64h6.58a6.29,6.29,0,0,1,3.93,1.08,3.8,3.8,0,0,1,1.4,3.18v.08a3.82,3.82,0,0,1-1.44,3.14,6,6,0,0,1-3.85,1.16Zm-33.43,12.93H548.9v-4.07H534.21V292h12.86v-4.07H534.21v-6.59h14.51v-4.07h-19ZM491.4,303h3.88l6.3-18.42,6.3,18.42h3.88l8.94-25.82H516l-6.12,19-6.3-19.08h-3.81l-6.3,19.08-6.12-19h-4.87Zm-24.87-.8a13.42,13.42,0,0,0,4.25-2.88,12.87,12.87,0,0,0,2.78-4.21,13.26,13.26,0,0,0,1-5.11V290a13.26,13.26,0,0,0-1-5.11,13.1,13.1,0,0,0-2.74-4.2,12.94,12.94,0,0,0-4.22-2.83,13.71,13.71,0,0,0-15.09,2.89,13,13,0,0,0-2.78,4.21,13.26,13.26,0,0,0-1,5.11v.07a13.25,13.25,0,0,0,3.74,9.31,13,13,0,0,0,4.21,2.84,13.82,13.82,0,0,0,5.42,1,13.61,13.61,0,0,0,5.42-1.06m-8.85-3.81a8.56,8.56,0,0,1-2.75-2,8.74,8.74,0,0,1-1.79-2.9,9.87,9.87,0,0,1-.64-3.53V290a9.78,9.78,0,0,1,.64-3.52,9,9,0,0,1,1.77-2.87,8.09,8.09,0,0,1,2.72-1.94,8.34,8.34,0,0,1,3.48-.72,8.47,8.47,0,0,1,3.5.73,8.48,8.48,0,0,1,4.54,4.86,9.7,9.7,0,0,1,.64,3.53v.07a9.57,9.57,0,0,1-.64,3.52,8.66,8.66,0,0,1-1.77,2.87,8.32,8.32,0,0,1-2.71,1.95,8.5,8.5,0,0,1-3.49.71,8.31,8.31,0,0,1-3.5-.73M420,302.86h4.47v-8.24h5.1a13.62,13.62,0,0,0,4-.57,9.72,9.72,0,0,0,3.27-1.67,7.78,7.78,0,0,0,2.2-2.72,8.42,8.42,0,0,0,.81-3.79v-.08a8.65,8.65,0,0,0-.68-3.51,7.5,7.5,0,0,0-1.94-2.71,8.46,8.46,0,0,0-3.07-1.74,12.57,12.57,0,0,0-4.05-.61H420Zm4.47-12.31v-9.26h5.25a6.45,6.45,0,0,1,4.05,1.16,4.06,4.06,0,0,1,1.5,3.43V286a4.18,4.18,0,0,1-1.48,3.31,6.07,6.07,0,0,1-4.07,1.28ZM390,302.71a8.22,8.22,0,0,0,2.88-1.5,6.86,6.86,0,0,0,1.87-2.42,7.42,7.42,0,0,0,.67-3.22v-.07a6.68,6.68,0,0,0-.53-2.77,5.94,5.94,0,0,0-1.56-2.09,9.32,9.32,0,0,0-2.59-1.52,29.29,29.29,0,0,0-3.58-1.13q-1.83-.44-3-.84a8.28,8.28,0,0,1-1.87-.86,2.59,2.59,0,0,1-.94-1A3.14,3.14,0,0,1,381,284v-.07a2.64,2.64,0,0,1,1.1-2.16,4.76,4.76,0,0,1,3.07-.88,9.29,9.29,0,0,1,3.48.68,15.68,15.68,0,0,1,3.48,2l2.42-3.4a15.15,15.15,0,0,0-4.23-2.4,14.69,14.69,0,0,0-5.07-.82,11,11,0,0,0-3.52.54,8.58,8.58,0,0,0-2.75,1.52,6.9,6.9,0,0,0-2.45,5.37v.07a7.19,7.19,0,0,0,.57,3,5.64,5.64,0,0,0,1.65,2.1,9.73,9.73,0,0,0,2.68,1.47,29.27,29.27,0,0,0,3.65,1.08,27,27,0,0,1,2.92.8,7.26,7.26,0,0,1,1.77.88,2.79,2.79,0,0,1,.88,1,2.93,2.93,0,0,1,.24,1.23V296a2.73,2.73,0,0,1-1.23,2.34,5.56,5.56,0,0,1-3.32.88,10.29,10.29,0,0,1-4.32-.86,15.34,15.34,0,0,1-3.77-2.47l-2.71,3.22a15.35,15.35,0,0,0,5,3.1,16.17,16.17,0,0,0,5.67,1,12.67,12.67,0,0,0,3.7-.52m-27.87,0a8.22,8.22,0,0,0,2.88-1.5,6.86,6.86,0,0,0,1.87-2.42,7.42,7.42,0,0,0,.67-3.22v-.07a6.84,6.84,0,0,0-.53-2.77,6.19,6.19,0,0,0-1.56-2.09,9.32,9.32,0,0,0-2.59-1.52,29.29,29.29,0,0,0-3.58-1.13q-1.83-.44-3-.84a8.28,8.28,0,0,1-1.87-.86,2.51,2.51,0,0,1-.94-1,3.14,3.14,0,0,1-.26-1.3v-.07a2.66,2.66,0,0,1,1.1-2.16,4.81,4.81,0,0,1,3.08-.88,9.29,9.29,0,0,1,3.48.68,15.68,15.68,0,0,1,3.48,2l2.42-3.4a15.15,15.15,0,0,0-4.23-2.4,14.75,14.75,0,0,0-5.08-.82,11,11,0,0,0-3.51.54,8.58,8.58,0,0,0-2.75,1.52,7.06,7.06,0,0,0-1.8,2.35,6.85,6.85,0,0,0-.65,3v.07a7.19,7.19,0,0,0,.57,3,5.54,5.54,0,0,0,1.65,2.1,9.58,9.58,0,0,0,2.68,1.47,29.27,29.27,0,0,0,3.65,1.08,27.66,27.66,0,0,1,2.92.8,7,7,0,0,1,1.76.88,2.74,2.74,0,0,1,.89,1,3.1,3.1,0,0,1,.23,1.23V296a2.74,2.74,0,0,1-1.22,2.34,5.58,5.58,0,0,1-3.32.88,10.29,10.29,0,0,1-4.32-.86,15.34,15.34,0,0,1-3.77-2.47l-2.71,3.22a15.35,15.35,0,0,0,5,3.1,16.12,16.12,0,0,0,5.67,1,12.72,12.72,0,0,0,3.7-.52m-41.68.15h19.16v-4.07H324.88V292h12.86v-4.07H324.88v-6.59h14.5v-4.07h-19Zm-33.36,0h4.47V284.62l14.1,18.24h3.77V277.22h-4.47V295l-13.71-17.73h-4.16Zm-15.79,0h4.47V277.22h-4.47Zm-15.42-.15a8.22,8.22,0,0,0,2.88-1.5,6.86,6.86,0,0,0,1.87-2.42,7.42,7.42,0,0,0,.67-3.22v-.07a6.68,6.68,0,0,0-.53-2.77,5.94,5.94,0,0,0-1.56-2.09,9.32,9.32,0,0,0-2.59-1.52A29.29,29.29,0,0,0,253,288q-1.83-.44-3-.84a8.28,8.28,0,0,1-1.87-.86,2.59,2.59,0,0,1-.94-1,3.14,3.14,0,0,1-.25-1.3v-.07a2.64,2.64,0,0,1,1.1-2.16,4.76,4.76,0,0,1,3.07-.88,9.29,9.29,0,0,1,3.48.68,15.68,15.68,0,0,1,3.48,2l2.42-3.4a15.15,15.15,0,0,0-4.23-2.4,14.71,14.71,0,0,0-5.08-.82,11,11,0,0,0-3.51.54,8.58,8.58,0,0,0-2.75,1.52,6.9,6.9,0,0,0-2.45,5.37v.07a7.19,7.19,0,0,0,.57,3,5.64,5.64,0,0,0,1.65,2.1,9.73,9.73,0,0,0,2.68,1.47A29.27,29.27,0,0,0,251,292a27,27,0,0,1,2.92.8,7.26,7.26,0,0,1,1.77.88,2.79,2.79,0,0,1,.88,1,2.93,2.93,0,0,1,.24,1.23V296a2.73,2.73,0,0,1-1.23,2.34,5.56,5.56,0,0,1-3.32.88,10.29,10.29,0,0,1-4.32-.86,15.34,15.34,0,0,1-3.77-2.47l-2.71,3.22a15.35,15.35,0,0,0,5,3.1,16.17,16.17,0,0,0,5.67,1,12.67,12.67,0,0,0,3.7-.52m-29.79-.16a9.07,9.07,0,0,0,3.46-2.16,10,10,0,0,0,2.22-3.61,14.74,14.74,0,0,0,.78-5V277.22H228V292a7.41,7.41,0,0,1-1.73,5.35,7.15,7.15,0,0,1-9.54-.07A7.79,7.79,0,0,1,215,291.8V277.22h-4.47V292a14.26,14.26,0,0,0,.77,4.89,9.71,9.71,0,0,0,2.2,3.54,9.15,9.15,0,0,0,3.44,2.14,13.63,13.63,0,0,0,4.51.71,13.9,13.9,0,0,0,4.56-.71m-46,.31H192a15.1,15.1,0,0,0,3.87-.46,9,9,0,0,0,3-1.34,5.94,5.94,0,0,0,1.92-2.19,6.58,6.58,0,0,0,.68-3v-.08a6.49,6.49,0,0,0-.37-2.3,5,5,0,0,0-1-1.72,6.8,6.8,0,0,0-1.61-1.27,12.94,12.94,0,0,0-2-.93,10.81,10.81,0,0,0,1.36-.88,5.45,5.45,0,0,0,1.16-1.19,5.72,5.72,0,0,0,.8-1.58,6.18,6.18,0,0,0,.31-2.07v-.07a5.78,5.78,0,0,0-1.72-4.25q-2.27-2.26-6.69-2.27H180.1ZM184.57,288v-6.82H191a5.52,5.52,0,0,1,3.34.86,2.83,2.83,0,0,1,1.15,2.4v.08a2.94,2.94,0,0,1-1.31,2.62,6.38,6.38,0,0,1-3.51.86Zm0,10.84v-7h7.12a7,7,0,0,1,4,.89,2.91,2.91,0,0,1,1.3,2.55v.07a3,3,0,0,1-1.31,2.64,6.52,6.52,0,0,1-3.62.88Zm-50.23,4h4.46v-8.94h5.66l6.32,8.94h5.31l-6.92-9.71a9.41,9.41,0,0,0,2.47-1,7.5,7.5,0,0,0,1.93-1.65,7.59,7.59,0,0,0,1.26-2.23,8.42,8.42,0,0,0,.46-2.84v-.07a8.44,8.44,0,0,0-.55-3.08,7.27,7.27,0,0,0-1.58-2.45,8.57,8.57,0,0,0-3.11-1.89,12.58,12.58,0,0,0-4.29-.68H134.34Zm4.46-12.93v-8.64h6.58a6.29,6.29,0,0,1,3.93,1.08,3.8,3.8,0,0,1,1.4,3.18v.08a3.84,3.84,0,0,1-1.43,3.14,6,6,0,0,1-3.86,1.16Zm-21.55,12.62a9,9,0,0,0,3.46-2.16,10,10,0,0,0,2.22-3.61,14.73,14.73,0,0,0,.79-5V277.22h-4.47V292a7.45,7.45,0,0,1-1.73,5.35,6.3,6.3,0,0,1-4.76,1.79,6.21,6.21,0,0,1-4.78-1.86,7.75,7.75,0,0,1-1.73-5.46V277.22h-4.47V292a14,14,0,0,0,.77,4.89,9.56,9.56,0,0,0,2.19,3.54,9.19,9.19,0,0,0,3.45,2.14,13.53,13.53,0,0,0,4.5.71,13.81,13.81,0,0,0,4.56-.71m-33-.31a13.42,13.42,0,0,0,4.25-2.88,12.87,12.87,0,0,0,2.78-4.21,13.26,13.26,0,0,0,1-5.11V290a13.26,13.26,0,0,0-1-5.11,13.1,13.1,0,0,0-2.74-4.2,12.94,12.94,0,0,0-4.22-2.83,13.71,13.71,0,0,0-15.09,2.89,13,13,0,0,0-2.78,4.21,13.26,13.26,0,0,0-1,5.11v.07a13.25,13.25,0,0,0,3.74,9.31,13,13,0,0,0,4.21,2.84,13.82,13.82,0,0,0,5.42,1,13.65,13.65,0,0,0,5.42-1.06m-8.85-3.81a8.56,8.56,0,0,1-2.75-2,8.74,8.74,0,0,1-1.79-2.9,9.87,9.87,0,0,1-.64-3.53V290a9.78,9.78,0,0,1,.64-3.52,9,9,0,0,1,1.77-2.87,8.09,8.09,0,0,1,2.72-1.94,8.34,8.34,0,0,1,3.48-.72,8.47,8.47,0,0,1,3.5.73,8.57,8.57,0,0,1,4.54,4.86,9.7,9.7,0,0,1,.64,3.53v.07a9.57,9.57,0,0,1-.64,3.52,8.66,8.66,0,0,1-1.77,2.87,8.32,8.32,0,0,1-2.71,1.95,8.5,8.5,0,0,1-3.49.71,8.31,8.31,0,0,1-3.5-.73m-31.91,4.43h4.54V292.64l10.18-15.42H53.07l-7.26,11.36-7.17-11.36H33.33l10.18,15.53Z" transform="translate(-32.41 -119.05)"/></g><path class="cls-2" d="M637.14,227.59H613.06l10.74,21.65h24.25ZM563.75,206h0L583,167.71,602,206H626.4L583,119.06,517.87,249.24H542L553,227.43Z" transform="translate(-32.41 -119.05)"/><polygon class="cls-2" points="327.89 30.27 393.14 95.84 436.75 52.4 436.75 130.18 458.23 130.18 458.23 0 393.14 65.09 327.89 0 327.89 30.27"/><polygon class="cls-3" points="327.89 30.27 392.91 95.61 392.91 64.86 327.89 0 327.89 30.27"/><path class="cls-3" d="M425.32,214.9V184.15m-65.09-9.45v74.54h21.48V196.56Z" transform="translate(-32.41 -119.05)"/><path class="cls-5" d="M425.32,214.9v0Z" transform="translate(-32.41 -119.05)"/><polygon class="cls-3" points="226.19 130.18 248.26 130.18 248.26 80.5 300.37 0.13 276.28 0 237.4 60.74 198.72 0 174.69 0 226.19 81.04 226.19 130.18"/></svg>